HIERARCHY
ROOT HipCenter
{
    OFFSET 0.0 0.0 -0.0
    CHANNELS 6 Xposition Yposition Zposition Zrotation Xrotation Yrotation
    JOINT Spine
    {
        OFFSET 0.0 11.587485313415527 0.0
        CHANNELS 3 Zrotation Xrotation Yrotation
        JOINT ShoulderCenter
        {
            OFFSET 0.0 33.28940963745117 0.0
            CHANNELS 3 Zrotation Xrotation Yrotation
            JOINT LeftShoulder
            {
                OFFSET 17.853328704833984 0.0 0.0
                CHANNELS 3 Zrotation Xrotation Yrotation
                JOINT LeftElbow
                {
                    OFFSET 30.745092391967773 0.0 0.0
                    CHANNELS 3 Zrotation Xrotation Yrotation
                    JOINT LeftWrist
                    {
                        OFFSET 31.183013916015625 0.0 0.0
                        CHANNELS 3 Zrotation Xrotation Yrotation
                        JOINT LeftHand
                        {
                            OFFSET 3.49552845954895 0.0 0.0
                            CHANNELS 3 Zrotation Xrotation Yrotation
                            End Site
                            {
                                OFFSET 1.3982114791870117 0.0 0.0
                            }
                        }
                    }
                }
            }
            JOINT RightShoulder
            {
                OFFSET -17.853328704833984 0.0 0.0
                CHANNELS 3 Zrotation Xrotation Yrotation
                JOINT RightElbow
                {
                    OFFSET -30.745092391967773 0.0 0.0
                    CHANNELS 3 Zrotation Xrotation Yrotation
                    JOINT RightWrist
                    {
                        OFFSET -31.183013916015625 0.0 0.0
                        CHANNELS 3 Zrotation Xrotation Yrotation
                        JOINT RightHand
                        {
                            OFFSET -3.49552845954895 0.0 0.0
                            CHANNELS 3 Zrotation Xrotation Yrotation
                            End Site
                            {
                                OFFSET -1.3982114791870117 0.0 0.0
                            }
                        }
                    }
                }
            }
            End Site
            {
                OFFSET 0.0 13.315763473510742 0.0
            }
        }
    }
    JOINT LeftHip
    {
        OFFSET 13.445955276489258 0.0 0.0
        CHANNELS 3 Zrotation Xrotation Yrotation
        JOINT LeftKnee
        {
            OFFSET 0.0 -42.909881591796875 0.0
            CHANNELS 3 Zrotation Xrotation Yrotation
            JOINT LeftAnkle
            {
                OFFSET 0.0 -45.15047836303711 0.0
                CHANNELS 3 Zrotation Xrotation Yrotation
                JOINT LeftFoot
                {
                    OFFSET 0.0 -12.531600952148438 0.0
                    CHANNELS 3 Zrotation Xrotation Yrotation
                    End Site
                    {
                        OFFSET 0.0 0.0 5.012639999389648
                    }
                }
            }
        }
    }
    JOINT RightHip
    {
        OFFSET -13.445955276489258 0.0 0.0
        CHANNELS 3 Zrotation Xrotation Yrotation
        JOINT RightKnee
        {
            OFFSET 0.0 -42.909881591796875 0.0
            CHANNELS 3 Zrotation Xrotation Yrotation
            JOINT RightAnkle
            {
                OFFSET 0.0 -45.15047836303711 0.0
                CHANNELS 3 Zrotation Xrotation Yrotation
                JOINT RightFoot
                {
                    OFFSET 0.0 -12.531600952148438 0.0
                    CHANNELS 3 Zrotation Xrotation Yrotation
                    End Site
                    {
                        OFFSET 0.0 0.0 5.012639999389648
                    }
                }
            }
        }
    }
}
MOTION
Frames: 10
Frame Time: 0.03333333333333333
42.0 -41.20000076293945 67.5 -2.045397308656982 -14.027633437537705 -174.2668397163155 -3.708292826931406 26.68081494737502 0.612910987548365 2.9419438620975e-07 8.412482939889554e-07 6.605635102164465 126.11330215466106 -18.04522795063455 -116.50137617214287 4.944084415671292e-07 -4.2948630005051906e-06 56.913939573724 6.232282353091703e-05 -87.19619962245969 24.32159681693659 -3.180554681463516e-15 5.517382872562698e-32 -1.9878466759146976e-15 -133.80984163063545 -9.337686880966267 121.16217240610662 -1.4883380386422516e-06 3.031895167292232e-06 -60.369496126935815 5.606749405485002e-06 -36.2982440811764 -53.339115386203005 -1.5902773407317582e-15 -5.565970692561154e-15 4.770832022195275e-15 110.17258479146598 -58.11235621218029 -173.5834985821398 105.54563549822826 9.068272959885082 -174.77958544240894 91.33537412182014 -28.373353206539537 141.68382470361766 3.1805546814635168e-15 4.4139062980501586e-32 1.5902773407317584e-15 -124.13952070735854 -58.18843486223952 167.69949266812804 -111.37180100679124 15.520620559776162 171.5807762876493 -86.48494881715075 -19.249959605938194 -143.84339189396198 0.0 0.0 0.0
42.0 -41.20000076293945 67.5999984741211 -2.55615039977438 -13.540761398131039 -174.73512547913043 -4.33087532775626 27.429791926874252 0.7509100493113144 -1.7781670583727134e-07 1.4749909311169821e-06 6.4244503033118905 126.00984106200909 -17.546193737030986 -116.72688103850903 -4.276833695795766e-06 -1.4043744491773837e-06 57.045825034365656 -3.252731928933357e-06 -89.01136102182437 22.06270856890184 0.0 0.0 -2.782985346280577e-15 -133.68105227564766 -9.374762359033603 120.95792339790972 -6.341114691743622e-06 -3.730999090197827e-06 -60.52945987539256 2.550328490801852e-06 -33.979105909678616 -53.81298572180389 1.5902773407317588e-15 -6.3611093629270335e-15 6.3611093629270335e-15 108.64695608540205 -57.86625976086187 -173.94051348333673 105.43654524433029 8.062870162626046 -175.37876573169692 90.83262094562548 -28.126343061075428 141.28638161604684 -1.7655625192200634e-31 6.3611093629270335e-15 3.1805546814635168e-15 -124.36015561480244 -58.9228430855713 168.6320916748789 -111.41298174573517 16.162959778544728 171.2467599242988 -86.47177684703466 -19.223613029299887 -143.7398959838206 0.0 0.0 -1.5902773407317584e-15
42.0 -41.29999923706055 67.5999984741211 -2.556150579677427 -14.02280743535004 -174.297697956112 -4.156095960737003 26.741235453365217 0.7611727373558219 5.848584547693394e-07 1.2926415729516336e-06 5.909603963856354 126.3800100858267 -17.425100103670054 -116.40862307280047 4.476071105749959e-08 -3.847682495785821e-07 56.81246626839505 179.9999657729778 -88.36444731367618 -156.45438593650323 0.0 0.0 3.975693351829395e-15 -133.78169584168114 -9.557130078784551 121.08772290865662 5.072243109948039e-06 -1.4238063964621036e-06 -60.59152674781469 -3.5445197082989096e-07 -35.75612533329088 -54.56904078184353 1.5902773407317582e-15 -6.361109362927033e-15 8.827812596100317e-32 109.49094710500961 -58.34626030978407 -173.7588688658407 105.33568543055627 9.180927714924549 -174.8164934792311 92.22558124621567 -28.107129928731442 142.37133716618683 -3.1805546814635168e-15 8.827812596100317e-32 -3.1805546814635168e-15 -124.76758680986428 -57.890730067979725 167.26660560400708 -111.67575084533638 15.335252516808618 171.81957433298194 -86.59602026344844 -18.24270483812592 -144.91353305896106 6.361109362927033e-15 -8.827812596100317e-32 -1.5902773407317582e-15
42.0 -41.29999923706055 67.5999984741211 -2.556150181370043 -14.022807652157075 -174.1169651134673 -4.087729752715828 26.623564224435935 1.0603101651663074 1.2624204543070998e-07 -4.843554998210862e-07 5.427146824618975 126.44494476969255 -17.536538935286867 -116.49264769054057 -2.0485395812874778e-06 1.461406526580408e-07 56.65028737586332 -4.960683792483113e-05 -87.6515558733147 24.321537196542504 3.1805546814635164e-15 0.0 0.0 -133.0988264968839 -9.638093795911391 121.54245921694337 3.4921624319248236e-06 -1.6862080098572698e-06 -60.90900665658576 6.785115086678202e-07 -33.52099129268123 -53.575150727090524 -7.951386703658792e-16 -7.951386703658791e-16 -7.951386703658792e-15 109.61961337950694 -58.836117585476714 -174.6251467079275 105.32469374896824 10.061127376666622 -174.41268320438775 92.32454932772674 -28.463533355411318 141.6670674366093 6.3611093629270335e-15 6.3611093629270335e-15 -3.531125038440127e-31 -124.47104209917434 -57.63788587523566 166.81030725524002 -111.56194403183144 14.459277342981649 172.15500096483086 -86.53631561476519 -18.573601768346087 -144.96184938032326 0.0 0.0 -6.3611093629270335e-15
42.0 -41.400001525878906 67.5 -2.5561493419401358 -13.540757107730382 -174.1456601044773 -4.070041336454119 26.988388511538375 1.0857345074828368 4.117425777286949e-07 -5.118387196062948e-06 5.511924215481291 125.99477593691228 -17.60460827742429 -117.0205230441827 -5.550123382867014e-06 2.468115041089114e-06 56.94144985914363 -179.99977332465429 -89.12173503664997 -156.64099628557273 3.1805546814635168e-15 -4.965644585306429e-32 -1.7890620083232284e-15 -133.1320608195692 -9.649039499216695 121.55607683899382 2.0201534484242016e-06 4.534078680846215e-06 -60.823674867127934 2.7911801182658855e-06 -34.724662000358926 -55.60133885273149 3.1805546814635164e-15 -5.565970692561153e-15 7.156248033292912e-15 109.22568671754978 -59.005410506206495 -176.07890835230629 105.51998233212448 10.880205053914311 -173.91647455740159 92.33960111830542 -29.13590615651478 141.21420243437274 -3.1805546814635168e-15 -1.7655625192200634e-31 6.3611093629270335e-15 -124.37780638459866 -57.89129911941822 167.26502274517844 -111.77923563082206 14.57008056608436 171.96652347419328 -86.45474682850777 -18.799520941449686 -145.008345130123 0.0 0.0 1.5902773407317582e-15
42.0 -41.29999923706055 67.5999984741211 -2.5561503754606516 -13.540762097590358 -173.69233860724015 -3.814922817087962 27.261555397986164 1.1078520316778129 1.4339626555354472e-07 -2.8570233225233127e-06 5.0271105169256085 126.19438826872074 -17.594480381612627 -116.73079531374864 -5.961525115850954e-07 -1.4533648061163958e-06 57.017809034478006 -0.00019580470058167682 -89.35431198926833 21.982887378391194 3.1805546814635168e-15 -7.724336021587778e-32 -2.782985346280577e-15 -132.8827859459257 -9.401832368401303 121.58321926442733 2.544387582402745e-07 -2.9669137942944356e-06 -61.09264743494481 2.4648390211490297e-07 -34.42352532877295 -55.362700246158596 -7.951386703658789e-16 -7.951386703658789e-16 7.951386703658789e-16 109.24578089278786 -59.49253612036577 -176.2728433031691 105.41608549545425 10.995183817791832 -173.9276936654415 91.42677219621575 -30.16751871536018 138.95542001535887 -1.7655625192200634e-31 -6.3611093629270335e-15 -3.1805546814635168e-15 -123.76218529619315 -57.58777366117386 167.76529414640078 -111.62662477743672 14.44216584872554 172.12959412686251 -86.02657248335794 -18.546147901555678 -144.49117211068705 0.0 0.0 -4.770832022195275e-15
42.0 -41.400001525878906 67.5999984741211 -2.5335587031831976 -12.945333403650949 -173.9974664855471 -3.9114142266148857 27.82895125963482 1.258273085634014 3.9096072535750226e-07 -2.6075390746284003e-06 5.270664629393647 125.87101844710537 -17.682648296046732 -116.76789236762586 -3.015590695827114e-06 -3.0392106057687187e-06 56.837897806984756 3.5528240132705966e-05 -84.8919191881742 22.673620559476458 -3.310429723537619e-32 -3.1805546814635164e-15 -1.1927080055488186e-15 -133.54210627855812 -9.40377932762669 120.97164454251403 4.291148044379164e-07 1.1282848688983056e-07 -60.436419054178934 5.465167051176988e-06 -33.98638579926985 -53.64312866637452 -7.951386703658792e-16 7.156248033292914e-15 4.965644585306429e-32 108.29631588305712 -59.16517952601182 -176.4823305610756 105.45740365940259 9.956602845674139 -174.5423662561503 91.40288397074927 -29.037454253730463 139.77672577894919 0.0 0.0 -6.361109362927032e-15 -123.34962953387857 -58.05609575382709 168.13572988773137 -111.65094383649274 14.392242078939738 172.12573588038165 -86.3387128754596 -18.566263807393085 -144.97888928376275 0.0 0.0 3.1805546814635168e-15
42.099998474121094 -41.400001525878906 67.5999984741211 -2.0273302479179236 -12.949734537613972 -173.8013920972607 -3.3759215357264445 27.77751259832964 1.4087058149529263 -1.0328500432521641e-07 1.6978565201322946e-06 5.127420938604417 126.30274419455282 -17.721235801810366 -116.63904116162253 -6.069477551277314e-06 -1.3208190167672607e-06 56.9753877597729 -179.99997334394496 -88.89957584199759 -156.40413300384785 -3.1805546814635168e-15 -9.379550883356588e-32 3.3793393490549868e-15 -133.59697625675338 -9.29089787224215 121.00624208480563 -6.690738396174139e-06 1.598230163738541e-06 -60.408848354781185 8.865669676776986e-06 -34.061981099562956 -53.64312991105843 -7.951386703658792e-16 7.156248033292914e-15 4.965644585306429e-32 108.84264309764868 -59.4483337632179 -178.11688469884123 105.35823703745616 11.754061758448069 -173.5958982282837 91.28425819057263 -30.21727201647378 138.32018699360057 6.361109362927033e-15 8.827812596100317e-32 1.5902773407317582e-15 -122.35137448204037 -57.53193714617754 167.4212372347675 -111.54510320023498 13.547139807946381 172.48033676938186 -86.33649656177482 -18.22313646359221 -145.96425011878216 6.361109362927032e-15 -8.827812596100317e-32 -1.590277340731758e-15
42.099998474121094 -41.400001525878906 67.5999984741211 -2.0273300732567843 -12.949733538727592 -173.43174677621514 -3.37419533890109 27.927542463932053 1.3748856569749799 8.087591543627955e-08 -1.829721314344252e-06 4.7204532482795205 126.357905378094 -17.33387512938868 -116.42652338963255 2.8952339528382795e-06 1.6468593042874712e-06 56.7464146280953 -179.99989420265058 -87.91205635615627 -156.71138127547843 0.0 0.0 -3.975693351829396e-16 -133.48796658814837 -9.263300346898674 120.56295221316968 -2.640493031912054e-06 -3.4349286040889735e-06 -60.15505390118312 -1.012636202546554e-06 -34.08085506532711 -53.64316544874744 7.951386703658792e-15 0.0 0.0 109.28341952847529 -59.74038814240616 -177.37747559580816 105.47350798734921 11.45266884132817 -173.6828107612066 91.28274134569553 -30.101238364982315 138.77943201793138 3.1805546814635168e-15 6.3611093629270335e-15 3.1805546814635168e-15 -122.50736116405808 -57.36242402596756 167.1835670399859 -111.68965336837556 13.141208618033836 172.69223279433984 -86.39251918236822 -17.76184990711333 -146.77761761769398 0.0 0.0 1.5902773407317584e-15
42.0 -41.400001525878906 67.5999984741211 -2.53355887554705 -12.945332876289937 -173.62744518396772 -3.71533628392843 27.965602684680842 1.1321119763555132 -5.188282233653737e-07 -9.619778927051515e-07 5.076367780989341 126.20060385290648 -17.59430575011508 -116.58446178780635 -1.2734529972093305e-06 -1.729304322630918e-06 56.73650955304649 0.0001786077749327754 -88.63993231395428 21.9634438357858 3.1805546814635164e-15 -1.3241718894150476e-31 -4.770832022195274e-15 -133.47573493890343 -9.208079964091324 120.97112084381043 -4.844083655419038e-11 5.63962556964496e-06 -60.68017414037454 6.1712989802982655e-06 -35.53344080268239 -54.16117108133234 4.770832022195275e-15 -7.156248033292914e-15 2.385416011097638e-15 108.4148422269006 -59.73929149017093 -177.33762312802943 105.30778603019213 11.248011383747835 -173.7635161245997 92.73044157079593 -29.24599990876102 141.29931622242086 -3.1805546814635164e-15 3.089734408635111e-31 -1.1131941385122307e-14 -122.61474202917871 -57.38068865065532 168.05808195784462 -111.53664833574794 13.773560752198993 172.45348958330948 -86.29766399104057 -18.303617245761483 -145.40093066736415 -4.413906298050159e-31 -6.3611093629270335e-15 -7.951386703658792e-15
